<?xml version="1.0" encoding="utf-8"?>
<!-- Generator: Adobe Illustrator 19.0.0, SVG Export Plug-In . SVG Version: 6.00 Build 0)  -->
<svg version="1.1" id="Layer_1" xmlns="http://www.w3.org/2000/svg" xmlns:xlink="http://www.w3.org/1999/xlink" x="0px" y="0px"
	 width="1000px" height="200px" viewBox="194 297 1000 200" style="enable-background:new 194 297 1000 200;" xml:space="preserve">
<g>
	<path d="M489,447.9c0,3.9-0.6,6.4-1.7,7.5c-1.1,1.1-3.1,1.7-6.1,1.7c-1.4,0-14.1-6-38-18.1c-31.5-16-51.3-25.9-59.5-29.7
		c0,4.3,1.2,9,3.6,14.3c1,2,3.3,6.1,6.9,12.4c2.5,4.2,3.7,7.1,3.7,8.8c0,1.7-0.9,3.2-2.8,4.4c-1.9,1.2-3.8,1.9-5.7,1.9
		c-4.4,0-9.1-4.8-14.3-14.3c-3.1-5.6-5.5-10.8-7.1-15.6c-1.9-3.8-4.6-10-8.3-18.4c-0.4-0.9-0.5-2.8-0.5-5.6c0-2,0-3.9,0.1-5.9
		c-0.1-1.8-0.3-3.2-0.5-4.1c-0.6-2-2.6-6-5.9-11.7c-2.9-5.2-4.4-8.3-4.4-9.2c0-1.7,1-3.4,3.1-5.1c2.1-1.7,4.1-2.6,6.1-2.6
		c1.7,0,2.9,0.3,3.5,1s1.3,1.4,1.9,2.1c10.8-13.8,18.6-22.4,23.3-25.9c5.9-4.4,13.8-6.5,23.7-6.5c9,0,16.4,2.9,22.1,8.6
		c5.8,5.7,8.7,12.9,8.7,21.5c0,10.1-3.7,18.7-11.2,25.7c-4.8,4.5-13.4,9.9-25.9,16c4,3.7,13.7,9.5,29.2,17.2
		c22.4,11.1,34.9,17.4,37.6,18.9c0.4-1.1,0.7-2.4,0.7-4c0-1.2-0.2-3-0.5-5.7c-0.3-2.6-0.5-4.5-0.5-5.7h6.5c3.4-0.1,6.4,4.1,8.9,12.5
		C488,440.6,489,445.2,489,447.9z M427.4,360c0-4-1.6-7.9-4.8-11.8c-3.6-4.3-7.6-6.5-12.1-6.5c-8.4,0-16.5,4.4-24.3,13.3
		c-7.5,8.5-11.2,16.9-11.2,25.1c0,1.2,0.3,3.2,0.9,6.3c0.6,3,0.9,5,0.9,5.8h12.7c6,0.1,13.9-3.8,23.5-11.6
		C422.6,372.8,427.4,366,427.4,360z"/>
	<path d="M559.2,385.7c0,4.9-7.4,9.2-22.1,13.1c-11,2.8-18.7,4.3-23.1,4.3l-12.3-1.7c-0.8,0.8-1.2,1.5-1.2,2c0-0.7,0,0.6,0,4
		c0,6.2,2.7,12,8,17.5c5.5,5.7,11.6,8.5,18.3,8.5h12.8c1.2-2,1.6-5.2,1.3-9.6c1-1,1.7-1.6,2.2-1.8c0.5-0.2,1.7-0.3,3.5-0.3
		c3.6,0,6.5,2,8.5,5.9c1.6,3,2.4,6.1,2.4,9.2c0,3.9-3.5,6.8-10.4,8.5c-3.9,1-7.7,1.5-11.3,1.5c-36.9,0-54.7-19.3-53.3-57.9
		c0.1-1.5,0.6-5.4,1.6-11.7c0.8-5.4,1.1-9.7,0.9-12.9c-6.9-2.9-14.6-8.7-23.1-17.2c2.9-5.1,6.3-7.6,10-7.6c1.4,0,4.2,1.7,8.5,5.1
		c4.2,3.4,7,5.1,8.3,5.1c1.4,0,2.7-0.7,3.7-2.1c2.1-2.8,3.3-4.3,3.6-4.5h9.3V353c6,2,10.5,3.1,13.6,3.1c1.1,0,12.4-1.9,34-5.7
		l1.2,7.1c-3.8,3.8-9.1,6.5-15.9,8.1c-5.1,1.2-11.5,1.8-19.2,2c-5.8,0-11.6,0-17.3,0.1c-2,6.1-3.1,11.5-3.1,16
		c1.8,2.1,5.3,3.5,10.5,4c1.6,0.2,5.1,0.3,10.5,0.3c7.5,0,13.1-0.4,16.8-1.2c6.3-1.3,11.2-4,14.7-8.1c0.2-0.1,0.5-0.1,0.9-0.1
		c0.7,0,1.9,0.2,3.7,0.7c1.7,0.4,2.8,0.7,3.3,0.7V385.7z"/>
	<path d="M671.1,405.7c0,14-6.6,25.3-19.9,33.7c-10.9,7-22.6,10.5-34.9,10.5c-3.1,0-7.8-0.7-14-2c-7.7-1.6-13-3.5-15.7-5.7
		c-2.5-2-5-6-7.6-12c-1.9-4.8-3.8-9.6-5.7-14.4c-4.4-8.4-8.8-16.8-13.2-25.2c-8.5-17.1-12.8-27.6-12.8-31.7c0-4.9,2.5-9,7.6-12.3
		c4.6-3.1,9.8-4.7,15.5-4.7c9.1,0,21.5,2.9,37.2,8.8c17.2,6.4,31.5,14,42.9,22.9C664.2,384.3,671.1,395,671.1,405.7z M656.9,408.4
		c0-17.6-22-33.4-66.1-47.4c-2.5-1-5-2-7.6-2.9c-3-1.2-5.3-1.6-6.9-1.5h-9.6c4.4,0,7.6,2,9.6,5.9c1.2,2.6,2.2,6.9,2.9,12.9
		c0.8,6.5,1.6,10.7,2.3,12.5c0.3-0.2,2.2-1.6,5.7-4.1c2.6-2,4.6-2.9,6-2.9c2,0,3.1,0.3,3.5,0.9c0.4,0.6,0.8,1.3,1.3,2
		c0.1,1,0.1,2,0.1,3.2c0,1.5-0.2,4.5-0.7,9c-0.4,3.7-0.4,6.7-0.3,9c1.3,15.1,4.8,24.7,10.5,28.6c2.4,1.6,6.1,2.4,11.2,2.4
		c6.2,0,13.4-2.1,21.6-6.3C651.5,424.1,656.9,417.1,656.9,408.4z"/>
	<path d="M820.3,421.3c0,3.6-5.3,7.2-15.9,10.9c-6.3,2.2-12.7,4-19.2,5.2c-4.4,0.9-10.5,2.4-18.1,4.7c-10,2.9-16,4.6-17.9,5.1
		c-8.2,2.3-16.4,4.6-24.5,6.8c-10.1,2.8-16,4.1-17.6,4.1h-12.8c-6,0-10.9-1.2-14.8-3.5c-0.2-1.3-0.3-2.7-0.3-4
		c0-13.4,11.2-27.8,33.5-43.1h9.2c-2.8,6.1-7.3,12.6-13.7,19.5c-6.4,6.8-10.5,12.5-12.5,16.9c0.7,0.7,1.4,1.1,2,1.2
		c-1.6-0.1-0.4-0.1,3.7-0.1c2.4,0,14.8-2.8,37.1-8.4c23.9-6,43-11.2,57.2-15.7c0.2-0.4-0.2-1-1.2-1.6c-10-4.3-25.1-8.9-45.2-13.9
		c-25.9-6.3-42.5-10.6-49.9-12.8c-18.5-5.8-33.3-12.5-44.5-20.1v-9.1c6.2-2.1,15-4.4,26.4-6.8c10.8-2.2,17.5-3.3,20.1-3.3
		c0.4,0,2.3,0.3,5.7,0.9c3.5,0.6,8.4,0.9,14.9,0.9c-0.4-7.8,2-11.7,7.2-11.7c2.2,0,8.9,4,20.1,12.1c11.2,8,16.8,13,16.8,15
		c0,2.4-1.3,4.5-4,6.4c-2.3,1.7-4.5,2.5-6.7,2.5c-1.2,0-3.4-1.1-6.8-3.2c-3.7-2.4-6.5-3.9-8.3-4.4c-8.9-2.6-20.3-3.9-34.1-3.9
		c-1,0-2.6,0-5-0.1c-2.4-0.1-4.2-0.1-5.7-0.1c-6.6,0-12,0.9-16.4,2.8c11.1,4.7,23.5,9.2,37.2,13.5c9.6,2.3,19.2,4.6,28.8,6.8
		c20.4,5,36.8,9.7,49.1,14.1C811.7,411.1,820.3,416.6,820.3,421.3z"/>
	<path d="M889.9,404.9c0,10.4-2,19.9-6.1,28.5c-5.3,11.6-13.2,17.4-23.5,17.4c-13.5,0-25.2-5.4-35.1-16.3
		c-7.9-8.6-14.1-20-18.7-34.3c-3.6-11.5-5.5-21.7-5.5-30.8c0-6.3,1-12.9,2.9-19.9c2.9-10.3,7.2-15.5,12.7-15.5c2,0,3.7,0.6,5.2,1.9
		c1.5,1.3,2.3,2.8,2.3,4.6c0,1.2-0.6,2.7-1.9,4.4c-1.4,2.1-2.4,3.8-2.8,4.9c-1.3,4.2-2,10.7-2,19.5c0,5.5,1.2,12.8,3.5,21.9
		c3,12.3,7.2,22.2,12.5,29.7c6.9,10,15.3,14.9,25.1,14.9c10,0,14.9-8.7,14.9-26c0-1.2,0-2.5,0-4.1c-0.1-1.5-0.1-2.4-0.1-2.7
		c0-11-0.8-21.6-2.5-31.7c-1.1-6.3-2.6-13.2-4.7-20.6c-1.8-6.1-2.7-9.8-2.7-10.9c0-0.9,0.5-1.8,1.4-2.7c0.9-0.9,1.8-1.4,2.7-1.4
		c4.1,0,8,5.7,11.9,17.2c2.8,8.4,5.4,19.3,7.6,32.5C889,396,889.9,402.4,889.9,404.9z"/>
	<path d="M970.6,442.7c0,1.1-0.3,2.7-0.9,4.9c-0.6,2.2-0.9,4.1-0.9,5.7c-0.4,0-1.1,0.3-2.1,0.9s-2.3,0.9-3.7,0.9
		c-2.3,0-4.7-1.7-7.2-5.1c-0.3-11.9-0.5-23.8-0.7-35.7c-0.3-13.5-1.2-24.7-2.7-33.5c-2-11.6-5.5-22-10.3-31.1
		c-8.4,8.4-13.9,18.5-16.7,30.5c-1.6,7.3-2.5,18.5-2.7,33.6c-0.2,15.1-1.1,26.2-2.7,33.3h-10.5c-5.8-16-12.3-34.7-19.5-56.1
		c-7.5-22.3-11.2-34.3-11.2-36c0-4.5,2.8-6.8,8.4-6.8c4.4,0,7.3,3.2,8.9,9.5c1,4.6,2,9.2,2.9,13.9c0.4,1.2,1.6,5,3.3,11.6
		c1.6,5.7,3.3,10.3,5.1,13.7h1.1c1.4-6,2.8-11.9,4.1-17.9c3.3-12.2,7.1-21.9,11.3-29.2c6-10.2,12.8-15.3,20.4-15.3
		c10.7,0,18.2,17.9,22.7,53.6C969.5,406.6,970.6,424.8,970.6,442.7z"/>
	<path d="M1126,421.3c0,3.6-5.3,7.2-15.9,10.9c-6.3,2.2-12.7,4-19.2,5.2c-4.4,0.9-10.5,2.4-18.1,4.7c-10,2.9-16,4.6-17.9,5.1
		c-8.2,2.3-16.4,4.6-24.5,6.8c-10.1,2.8-16,4.1-17.6,4.1H1000c-6,0-10.9-1.2-14.8-3.5c-0.2-1.3-0.3-2.7-0.3-4
		c0-13.4,11.2-27.8,33.5-43.1h9.2c-2.8,6.1-7.3,12.6-13.7,19.5c-6.4,6.8-10.5,12.5-12.5,16.9c0.7,0.7,1.4,1.1,2,1.2
		c-1.6-0.1-0.4-0.1,3.7-0.1c2.4,0,14.8-2.8,37.1-8.4c23.9-6,43-11.2,57.2-15.7c0.2-0.4-0.2-1-1.2-1.6c-10-4.3-25.1-8.9-45.2-13.9
		c-25.9-6.3-42.5-10.6-49.9-12.8c-18.5-5.8-33.3-12.5-44.5-20.1v-9.1c6.2-2.1,15-4.4,26.4-6.8c10.8-2.2,17.5-3.3,20.1-3.3
		c0.4,0,2.3,0.3,5.7,0.9c3.5,0.6,8.4,0.9,14.9,0.9c-0.4-7.8,2-11.7,7.2-11.7c2.2,0,8.9,4,20.1,12.1c11.2,8,16.8,13,16.8,15
		c0,2.4-1.3,4.5-4,6.4c-2.3,1.7-4.5,2.5-6.7,2.5c-1.2,0-3.4-1.1-6.8-3.2c-3.7-2.4-6.5-3.9-8.3-4.4c-8.9-2.6-20.3-3.9-34.1-3.9
		c-1,0-2.6,0-5-0.1c-2.4-0.1-4.2-0.1-5.7-0.1c-6.6,0-12,0.9-16.4,2.8c11.1,4.7,23.5,9.2,37.2,13.5c9.6,2.3,19.2,4.6,28.8,6.8
		c20.4,5,36.8,9.7,49.1,14.1C1117.4,411.1,1126,416.6,1126,421.3z"/>
</g>
</svg>
